<svg width="139" height="66" viewBox="0 0 139 66" fill="none" xmlns="http://www.w3.org/2000/svg">
<g clip-path="url(#clip0_242_200)">
<path d="M13.9952 9.39163C13.9952 9.83757 13.912 10.2835 13.7454 10.6403C13.5789 10.997 13.4123 11.2646 13.0792 11.5322C12.8293 11.7997 12.4962 11.9781 12.1631 12.0673C11.83 12.1565 11.4969 12.2457 11.1638 12.3349V13.2268H9.4982V12.3349C8.99852 12.2457 8.58213 12.1565 8.24902 11.9781C7.9159 11.7997 7.58279 11.6214 7.41623 11.2646C7.16639 10.997 6.99984 10.6403 6.91656 10.2835C6.83328 9.92676 6.75 9.48082 6.75 9.03487V5.28893C6.75 4.84298 6.83328 4.39703 6.99984 4.04028C7.16639 3.68352 7.33295 3.41595 7.66607 3.14839C7.9159 2.88082 8.24902 2.70244 8.58213 2.61325C8.91525 2.52406 9.24836 2.43487 9.58148 2.43487V1.81055H11.247V2.43487C11.5802 2.43487 11.9133 2.52406 12.2464 2.61325C12.5795 2.79163 12.8293 2.97001 13.1625 3.14839C13.4123 3.41595 13.6621 3.68352 13.7454 4.04028C13.912 4.39703 13.9952 4.84298 13.9952 5.28893V9.39163ZM9.58148 3.77271C9.24836 3.8619 8.91525 4.04028 8.66541 4.21866C8.49885 4.39703 8.41557 4.75379 8.41557 5.19974V9.57001C8.41557 9.74838 8.41557 9.92676 8.49885 10.1051C8.58213 10.2835 8.66541 10.3727 8.74869 10.4619C8.83197 10.5511 8.99852 10.6403 9.16508 10.7295C9.33164 10.8187 9.4982 10.8187 9.58148 10.8187V3.77271ZM12.4962 5.19974C12.4962 4.75379 12.413 4.48622 12.1631 4.21866C11.9133 3.95109 11.6634 3.8619 11.3303 3.8619V10.9078C11.4969 10.9078 11.5802 10.8187 11.7467 10.8187C11.9133 10.7295 11.9966 10.6403 12.1631 10.5511C12.2464 10.4619 12.413 10.2835 12.413 10.1943C12.4962 10.016 12.4962 9.83757 12.4962 9.6592V5.19974Z" fill="white"/>
<path d="M22.3208 10.2829C22.3208 11.2639 22.0709 11.9775 21.6545 12.5126C21.2382 13.0477 20.5719 13.2261 19.6559 13.2261C18.7398 13.2261 18.0736 12.9585 17.6572 12.5126C17.2408 12.0667 17.0742 11.3531 17.0742 10.3721V4.75314C17.0742 4.30719 17.1575 3.86124 17.2408 3.50449C17.3241 3.14773 17.4906 2.79097 17.6572 2.52341C17.907 2.25584 18.1568 2.07746 18.49 1.89908C18.8231 1.80989 19.1562 1.7207 19.6559 1.7207C20.1555 1.7207 20.5719 1.80989 20.905 1.89908C21.2382 2.07746 21.488 2.25584 21.7378 2.52341C21.9044 2.79097 22.0709 3.14773 22.1542 3.50449C22.2375 3.86124 22.3208 4.30719 22.3208 4.75314V10.2829ZM20.5719 4.57476C20.5719 4.218 20.4886 3.95043 20.4054 3.68287C20.2388 3.4153 20.0723 3.32611 19.6559 3.32611C19.4893 3.32611 19.3227 3.32611 19.1562 3.50449C19.0729 3.59368 18.9064 3.68287 18.8231 3.86124C18.7398 4.03962 18.7398 4.12881 18.6565 4.30719C18.6565 4.48557 18.6565 4.66395 18.6565 4.75314V10.4612C18.6565 10.7288 18.7398 10.9964 18.9064 11.2639C19.0729 11.5315 19.3227 11.6207 19.6559 11.6207C19.989 11.6207 20.2388 11.5315 20.4054 11.2639C20.5719 10.9964 20.6552 10.7288 20.6552 10.3721L20.5719 4.57476Z" fill="white"/>
<path d="M29.0654 13.2268V8.23217H27.1499V13.2268H25.4844V1.81055H27.1499V6.53757H29.0654V1.81055H30.7309V13.2268H29.0654Z" fill="white"/>
<path d="M34.6462 13.2268V15.3673H33.2305V11.7105L33.8967 11.5322C34.2298 11.1754 34.3964 10.8187 34.4796 10.3727C34.5629 9.92676 34.6462 9.39163 34.6462 8.67811L34.8128 1.81055H39.6429V11.5322H40.3092V15.3673H38.8934V13.2268H34.6462ZM36.2285 8.67811C36.2285 9.30244 36.1452 9.92676 36.1452 10.3727C36.0619 10.8187 35.9787 11.2646 35.8121 11.5322H38.1439V3.50514H36.3118L36.2285 8.67811Z" fill="white"/>
<path d="M50.4694 1.7207C50.8858 1.7207 51.3022 1.80989 51.6353 1.89908C51.9685 1.98827 52.2183 2.25584 52.4681 2.43422C52.718 2.70178 52.8012 2.96935 52.9678 3.23692C52.9678 3.59368 52.9678 3.95043 52.9678 4.30719L51.3022 4.75314C51.3022 4.30719 51.219 4.03962 51.0524 3.77205C50.8858 3.50449 50.636 3.4153 50.3029 3.4153C50.1363 3.4153 49.9698 3.4153 49.8032 3.50449C49.7199 3.59368 49.5534 3.68287 49.5534 3.86124C49.4701 4.03962 49.4701 4.12881 49.3868 4.30719C49.3868 4.48557 49.3868 4.66395 49.3868 4.75314V10.5504C49.3868 10.6396 49.3868 10.818 49.3868 10.9072C49.3868 11.0856 49.4701 11.1748 49.5534 11.2639C49.6367 11.3531 49.7199 11.4423 49.8032 11.5315C49.8865 11.6207 50.053 11.6207 50.2196 11.6207C50.8026 11.6207 51.1357 11.1748 51.1357 10.1937C51.3855 10.2829 51.7186 10.2829 51.9685 10.3721C52.2183 10.4612 52.5514 10.4612 52.8012 10.4612C52.8012 11.3531 52.5514 11.9775 52.135 12.5126C51.7186 13.0477 51.0524 13.2261 50.2196 13.2261C49.3035 13.2261 48.6373 12.9585 48.2209 12.5126C47.8045 12.0667 47.5547 11.3531 47.5547 10.4612V4.84232C47.5547 4.39638 47.5547 4.03962 47.7212 3.59368C47.8045 3.23692 47.9711 2.88016 48.1376 2.61259C48.3875 2.34503 48.6373 2.07746 48.9704 1.98827C49.5534 1.80989 49.9698 1.7207 50.4694 1.7207Z" fill="white"/>
<path d="M60.9614 10.2832C60.9614 11.2643 60.7116 11.9778 60.2952 12.5129C59.8788 13.0481 59.2126 13.2264 58.2965 13.2264C57.3804 13.2264 56.7142 12.9589 56.2978 12.5129C55.8814 12.067 55.7148 11.3535 55.7148 10.3724V4.75346C55.7148 4.30751 55.7981 3.86157 55.8814 3.50481C55.9647 3.14805 56.1312 2.7913 56.2978 2.52373C56.4644 2.25616 56.7975 2.07778 57.1306 1.8994C57.4637 1.72103 57.8801 1.63184 58.2965 1.63184C58.7962 1.63184 59.2126 1.72103 59.5457 1.81021C59.8788 1.98859 60.1286 2.16697 60.3785 2.43454C60.545 2.70211 60.7116 3.05886 60.7948 3.41562C60.8781 3.77238 60.9614 4.21832 60.9614 4.66427V10.2832ZM59.2958 4.57508C59.2958 4.21832 59.2126 3.95076 59.1293 3.68319C58.9627 3.41562 58.7962 3.32643 58.3798 3.32643C58.2132 3.32643 58.0466 3.32643 57.8801 3.50481C57.7968 3.594 57.6303 3.68319 57.547 3.86157C57.4637 4.03994 57.4637 4.12913 57.3804 4.30751C57.3804 4.48589 57.3804 4.66427 57.3804 4.75346V10.4616C57.3804 10.7291 57.4637 10.9967 57.6303 11.2643C57.7968 11.5318 58.0466 11.621 58.3798 11.621C58.7129 11.621 58.9627 11.5318 59.1293 11.2643C59.2958 10.9967 59.3791 10.7291 59.3791 10.3724L59.2958 4.57508Z" fill="white"/>
<path d="M64.8767 13.2268V15.3673H63.4609V11.7105L64.1272 11.5322C64.4603 11.1754 64.6268 10.8187 64.7101 10.3727C64.7934 9.92676 64.8767 9.39163 64.8767 8.67811L65.0432 1.81055H69.8734V11.5322H70.5396V15.3673H69.1239V13.2268H64.8767ZM66.3757 8.67811C66.3757 9.30244 66.2924 9.92676 66.2924 10.3727C66.2091 10.8187 66.1259 11.2646 65.9593 11.5322H68.2911V3.50514H66.5423L66.3757 8.67811Z" fill="white"/>
<path d="M73.2891 13.2268V1.81055H78.1192V3.41595H74.9546V6.53757H77.7028V8.23217H74.9546V11.5322H78.1192V13.2268H73.2891Z" fill="white"/>
<path d="M84.6121 6.0912L82.3635 13.2263H80.7812V1.81012H82.4468V9.03444H82.5301L84.7786 1.81012H86.4442V13.1371H84.7786L84.6121 6.0912ZM82.6134 -0.776367C82.6134 -0.687178 82.6134 -0.5088 82.6967 -0.41961C82.7799 -0.330421 82.8632 -0.152043 82.9465 -0.0628536C83.0298 0.0263355 83.1131 0.115525 83.2796 0.204714C83.3629 0.293903 83.5294 0.293903 83.696 0.293903C83.8626 0.293903 84.0291 0.293903 84.1124 0.204714C84.1957 0.115525 84.3622 0.0263355 84.4455 -0.0628536C84.5288 -0.152043 84.6121 -0.241232 84.6121 -0.41961C84.6121 -0.597989 84.6121 -0.687178 84.6121 -0.776367H85.8612C85.8612 -0.597989 85.778 -0.330421 85.6947 -0.0628536C85.6114 0.204714 85.4449 0.472281 85.2783 0.739849C85.1117 0.918227 84.8619 1.09661 84.6121 1.27498C84.3622 1.45336 84.0291 1.45336 83.696 1.45336C83.2796 1.45336 82.9465 1.36417 82.6967 1.27498C82.3635 1.09661 82.1137 0.918227 81.9472 0.739849C81.7806 0.561471 81.614 0.293903 81.5308 0.0263354C81.4475 -0.241232 81.3642 -0.5088 81.3642 -0.687178L82.6134 -0.776367Z" fill="white"/>
<path d="M92.0255 1.7207C92.4419 1.7207 92.8583 1.80989 93.1914 1.89908C93.5246 1.98827 93.7744 2.25584 94.0242 2.43422C94.2741 2.70178 94.3573 2.96935 94.5239 3.23692C94.6072 3.59368 94.6905 3.86124 94.6905 4.30719L93.0249 4.75314C93.0249 4.30719 92.9416 4.03962 92.7751 3.77205C92.6085 3.50449 92.3587 3.4153 92.0255 3.4153C91.859 3.4153 91.6924 3.4153 91.5259 3.50449C91.4426 3.59368 91.276 3.68287 91.276 3.86124C91.1928 4.03962 91.1928 4.12881 91.1095 4.30719C91.1095 4.48557 91.1095 4.66395 91.1095 4.75314V10.5504C91.1095 10.6396 91.1095 10.818 91.1095 10.9072C91.1095 11.0856 91.1928 11.1748 91.276 11.2639C91.3593 11.3531 91.4426 11.4423 91.5259 11.5315C91.6092 11.6207 91.7757 11.6207 91.9423 11.6207C92.5252 11.6207 92.8583 11.1748 92.8583 10.1937C93.1082 10.2829 93.4413 10.2829 93.6911 10.3721C93.941 10.4612 94.2741 10.4612 94.5239 10.4612C94.5239 11.3531 94.2741 11.9775 93.8577 12.5126C93.4413 13.0477 92.7751 13.2261 91.9423 13.2261C91.0262 13.2261 90.4432 12.9585 89.9436 12.5126C89.4439 12.0667 89.2773 11.3531 89.2773 10.4612V4.84232C89.2773 4.39638 89.2773 4.03962 89.4439 3.59368C89.5272 3.23692 89.6937 2.88016 89.8603 2.61259C90.1101 2.34503 90.36 2.07746 90.6931 1.98827C91.1095 1.80989 91.5259 1.7207 92.0255 1.7207Z" fill="white"/>
<path d="M100.102 3.41595V13.2268H98.4364V3.41595H96.6875V1.81055H101.851V3.41595H100.102Z" fill="white"/>
<path d="M108.263 7.25109C108.763 7.42947 109.096 7.69703 109.262 8.14298C109.429 8.58893 109.512 9.12406 109.512 9.74838C109.512 10.9078 109.262 11.7997 108.763 12.3349C108.263 12.87 107.513 13.1376 106.514 13.1376H104.266V1.81055H106.597C107.513 1.81055 108.263 2.07811 108.679 2.61325C109.096 3.14838 109.346 3.95109 109.346 4.93217C109.346 5.4673 109.262 5.91325 109.096 6.27001C109.013 6.62676 108.679 6.98352 108.263 7.25109ZM107.847 4.93217C107.847 4.39703 107.763 4.04028 107.513 3.77271C107.347 3.50514 107.014 3.41595 106.514 3.41595H106.014V6.3592H106.597C107.014 6.3592 107.347 6.27001 107.513 6.00244C107.68 5.73487 107.847 5.37811 107.847 4.93217ZM107.93 9.57001C107.93 9.03487 107.847 8.67811 107.68 8.41055C107.513 8.14298 107.18 8.05379 106.681 8.05379H106.014V11.6214H106.681C106.931 11.6214 107.18 11.5322 107.347 11.443C107.513 11.3538 107.597 11.1754 107.68 10.997C107.763 10.8187 107.847 10.6403 107.847 10.3727C107.93 10.1051 107.93 9.83757 107.93 9.57001Z" fill="white"/>
<path d="M116.425 6.09163L114.176 13.2268H112.594V1.81055H114.176V9.03487H114.259L116.508 1.81055H118.173V13.2268H116.508V6.09163H116.425Z" fill="white"/>
<path d="M120.922 13.2268L121.505 9.6592C121.588 9.30244 121.671 8.94568 121.838 8.58893C122.004 8.23217 122.171 8.05379 122.504 7.87541C122.004 7.69703 121.671 7.34028 121.505 6.89433C121.338 6.44838 121.255 5.91325 121.255 5.28893C121.255 4.12947 121.505 3.32676 122.004 2.70244C122.504 2.1673 123.254 1.81055 124.086 1.81055H126.585V13.1376H124.919V8.32136H124.503C124.17 8.32136 123.92 8.41055 123.67 8.67811C123.42 8.94568 123.254 9.30244 123.17 10.016L122.671 13.2268H120.922ZM124.253 3.41595C123.753 3.41595 123.42 3.59433 123.17 3.8619C122.921 4.12947 122.837 4.57541 122.837 5.11055C122.837 5.64568 123.004 6.09163 123.254 6.27001C123.504 6.44839 123.837 6.62676 124.253 6.62676H124.919V3.41595H124.253Z" fill="white"/>
<path d="M11.8289 22.6801L8.99744 31.5099H7.08203V17.418H9.08072V26.3369H9.164L11.9122 17.418H13.9109V31.5099H11.9122V22.6801H11.8289Z" fill="white"/>
<path d="M24.07 31.5099V25.3558H21.7382V31.5099H19.6562V17.418H21.7382V23.3045H24.07V17.418H26.152V31.5099H24.07Z" fill="white"/>
<path d="M36.3942 31.5099V25.3558H33.9792V31.5099H31.9805V17.418H33.9792V23.3045H36.3942V17.418H38.4762V31.5099H36.3942Z" fill="white"/>
<path d="M50.6351 27.8534C50.6351 29.1021 50.3853 29.994 49.8856 30.6183C49.3859 31.2426 48.5531 31.5994 47.3872 31.5994C46.2213 31.5994 45.4718 31.3318 44.9722 30.7075C44.4725 30.0832 44.2227 29.2805 44.2227 28.121V20.9859C44.2227 20.4507 44.3059 19.9156 44.3892 19.4696C44.4725 19.0237 44.7223 18.5777 44.9722 18.3102C45.222 17.9534 45.5551 17.6859 45.9715 17.5967C46.3879 17.4183 46.8876 17.3291 47.4705 17.3291C48.0535 17.3291 48.6364 17.4183 48.9695 17.5967C49.3859 17.775 49.7191 18.0426 49.9689 18.3102C50.2187 18.6669 50.3853 19.0237 50.5518 19.4696C50.6351 19.9156 50.7184 20.4507 50.7184 21.075L50.6351 27.8534ZM48.5531 20.8075C48.5531 20.4507 48.4699 20.094 48.3033 19.7372C48.1368 19.3805 47.8036 19.2913 47.3872 19.2913C47.1374 19.2913 46.9709 19.3805 46.8043 19.4696C46.6377 19.5588 46.5545 19.7372 46.4712 19.9156C46.3879 20.094 46.3046 20.2723 46.3046 20.4507C46.3046 20.6291 46.2213 20.8075 46.2213 21.075V28.2102C46.2213 28.5669 46.3046 28.9237 46.4712 29.1913C46.6377 29.4588 46.9709 29.6372 47.3872 29.6372C47.8036 29.6372 48.1368 29.4588 48.3033 29.1913C48.4699 28.8345 48.5531 28.4777 48.5531 28.121V20.8075Z" fill="white"/>
<path d="M61.127 24.1075C61.71 24.2859 62.1264 24.7318 62.3762 25.2669C62.6261 25.8021 62.7093 26.5156 62.7093 27.2291C62.7093 28.7453 62.3762 29.8156 61.7933 30.4399C61.2103 31.1534 60.2943 31.5102 59.0451 31.5102H56.2969V17.3291H59.2116C60.3775 17.3291 61.2103 17.6859 61.7933 18.3102C62.3762 18.9345 62.6261 19.9156 62.6261 21.1642C62.6261 21.7886 62.5428 22.4129 62.2929 22.8588C62.0431 23.3048 61.71 23.7507 61.2103 23.9291L61.127 24.1075ZM60.5441 21.2534C60.5441 20.6291 60.4608 20.094 60.211 19.8264C59.9611 19.5588 59.5447 19.3805 58.9618 19.3805H58.2956V23.0372H58.9618C59.5447 23.0372 59.8779 22.8588 60.1277 22.5913C60.4608 22.2345 60.5441 21.7886 60.5441 21.2534ZM60.7106 27.0507C60.7106 26.4264 60.6274 25.8913 60.3775 25.5345C60.1277 25.1777 59.7113 25.0886 59.1284 25.0886H58.3788V29.4588H59.2116C59.5447 29.4588 59.7946 29.3696 60.0444 29.2805C60.211 29.1913 60.3775 28.9237 60.5441 28.7453C60.6274 28.5669 60.7106 28.2994 60.7939 28.0318C60.7106 27.675 60.7106 27.3183 60.7106 27.0507Z" fill="white"/>
<path d="M73.1214 31.5099L72.6217 28.5666H70.2066C70.1234 29.0126 70.0401 29.5477 69.9568 29.9936C69.8735 30.5288 69.7902 30.9747 69.707 31.5099H67.625C68.0414 29.1018 68.5411 26.7828 68.9575 24.4639C69.3739 22.145 69.8735 19.7369 70.2899 17.418H72.6217L75.3699 31.5099H73.1214ZM71.2893 20.6288C71.1227 21.6099 71.0394 22.5909 70.8729 23.572C70.7063 24.5531 70.5398 25.5342 70.3732 26.5153H72.2053L71.2893 20.6288Z" fill="white"/>
<path d="M86.695 17.418V29.4585H87.5277V34.1855H85.7789V31.5099H80.1992V17.418H82.2812V29.4585H84.613V17.418H86.695Z" fill="white"/>
<path d="M97.2716 22.6801L94.5234 31.5099H92.4414V17.418H94.5234V26.3369H94.6067L97.3549 17.418H99.3535V31.5099H97.3549V22.6801H97.2716Z" fill="white"/>
<path d="M104.602 31.5102L105.351 27.0507C105.434 26.6048 105.601 26.1588 105.767 25.7129C105.934 25.3561 106.267 24.9994 106.6 24.821C106.017 24.5534 105.601 24.1075 105.351 23.5723C105.101 23.0372 105.018 22.3237 105.018 21.6102C105.018 20.1832 105.351 19.2021 105.934 18.3994C106.6 17.6859 107.433 17.3291 108.516 17.3291H111.597V31.421H109.515V25.3561H108.932C108.599 25.3561 108.266 25.5345 107.933 25.8021C107.6 26.0696 107.433 26.6048 107.266 27.4075L106.6 31.421L104.602 31.5102ZM108.682 19.4696C108.099 19.4696 107.6 19.648 107.35 20.094C107.1 20.4507 107.017 20.9859 107.017 21.6994C107.017 22.4129 107.183 22.8588 107.516 23.1264C107.849 23.394 108.266 23.4832 108.765 23.4832H109.598V19.4696C109.515 19.4696 108.682 19.4696 108.682 19.4696Z" fill="white"/>
<path d="M121.172 28.3882L120.256 25.8018L119.423 23.3045H119.34V31.5099H117.258V17.418H119.257L120.672 21.4315L121.755 24.4639H121.838L122.921 21.3423L124.337 17.418H126.335V31.5099H124.253V23.3936L123.337 25.8909L122.421 28.3882H121.172Z" fill="white"/>
<path d="M125.169 38.6451C125.585 38.3776 126.002 38.0208 126.418 37.7533H126.501C124.169 38.9127 121.838 39.8938 119.589 40.8749C105.265 46.8505 91.8573 49.3478 80.1151 49.437C63.6259 49.5262 50.6344 44.7992 43.7223 37.6641H31.2305C49.9682 56.6614 93.6895 61.0316 125.169 38.6451Z" fill="#F7F7F7"/>
<path d="M18.9076 37.6644H7.08203C22.905 55.5914 45.5568 62.3698 64.5443 63.2617C66.543 63.3509 68.4584 63.3509 70.2906 63.3509C82.6158 63.1725 96.3568 60.3184 108.266 53.4509C115.094 49.5265 121.34 44.3536 126.42 37.5752C97.606 67.8995 39.8938 62.6374 18.9076 37.6644Z" fill="#EF2616"/>
<path d="M126.419 37.6641C125.919 38.0208 125.503 38.3776 125.087 38.6451C93.6905 61.0316 49.9692 56.6614 31.2315 37.6641H18.9062C39.8925 62.637 97.6046 67.8992 126.419 37.6641Z" fill="#0033A4"/>
<path d="M126.75 37.5745C126.75 37.4853 126.667 37.3962 126.583 37.3962C126.583 37.3962 126.5 37.307 126.417 37.307H126.334H126.25H126.167C123.835 38.3772 121.587 39.4475 119.255 40.4286C106.014 45.8691 92.4392 48.8124 79.9474 48.9016H79.2812C63.9579 48.9016 51.133 44.7097 44.0543 37.3962L43.971 37.307L43.8877 37.2178H43.8044H7.16183C7.16183 37.2178 7.07855 37.2178 6.99527 37.307L6.82871 37.3962C6.74543 37.4853 6.66215 37.5745 6.74543 37.6637V37.8421C6.74543 37.8421 6.74543 37.9313 6.82871 38.0205C14.1572 46.3151 23.4844 52.7367 34.4772 57.1962C43.6379 60.9421 54.0477 63.0826 64.4576 63.6178C65.8733 63.707 67.3723 63.707 68.8713 63.707C69.371 63.707 69.7874 63.707 70.2871 63.707C76.7828 63.6178 83.2785 62.8151 89.5244 61.2097C96.3533 59.5151 102.682 57.0178 108.429 53.807C115.757 49.6151 121.837 44.3529 126.667 37.9313V37.8421V37.7529V37.6637C126.75 37.7529 126.75 37.6637 126.75 37.5745ZM125.418 38.4664C120.754 44.3529 114.924 49.3475 108.096 53.1826C97.3526 59.2475 83.9448 62.7259 70.2871 62.9935C68.3717 62.9935 66.4562 62.9935 64.5408 62.9043C51.133 62.2799 25.9828 58.1772 7.74478 38.0205H43.6379C50.8831 45.4232 63.8746 49.6151 79.2812 49.6151C79.531 49.6151 79.6976 49.6151 79.9474 49.6151C92.5225 49.5259 106.18 46.5826 119.422 41.0529C121.503 40.3394 123.502 39.4475 125.418 38.4664Z" fill="white" fill-opacity="0.7"/>
</g>
<defs>
<clipPath id="clip0_242_200">
<rect width="139" height="66" fill="white"/>
</clipPath>
</defs>
</svg>
