<svg width="33" height="30" viewBox="0 0 33 30" fill="none" xmlns="http://www.w3.org/2000/svg">
<path d="M15.2328 29.8694C10.5089 29.0984 6.63807 26.7864 3.90137 23.1014C3.24208 22.214 2.38994 20.4318 2.19708 19.5391C2.11952 19.1825 2.1342 19.1909 3.02407 20.0248C5.47673 22.321 8.24487 23.4633 11.3159 23.4444C13.386 23.4329 14.6868 23.0815 17.4696 21.786C18.4087 21.3486 19.5061 20.8986 19.9086 20.7874C21.8204 20.2556 23.989 20.7979 25.1955 22.108C25.7594 22.7196 25.7237 22.9619 24.9659 23.6584C23.5488 24.9612 20.9222 25.9336 18.8196 25.9336C18.4108 25.9336 18.0765 25.9756 18.0765 26.0259C18.0765 26.2756 20.266 26.4256 21.4274 26.2546C23.0478 26.0176 25.1829 25.1564 26.7237 24.1179C28.5139 22.9105 30.3481 21.0769 31.5105 19.3325C31.9172 18.723 32.2746 18.1996 32.305 18.1713C32.4486 18.0349 32.2034 19.8024 31.9623 20.6332C31.4204 22.5046 30.4079 24.0885 28.7214 25.7018C26.6691 27.6655 24.2217 28.9452 21.1213 29.6764C19.7189 30.0078 16.6845 30.1064 15.2328 29.8694ZM9.53409 21.5322C5.58678 20.671 2.32496 18.1954 0.781042 14.887C0.157396 13.5506 0.00436715 12.8582 0.000174571 11.353C-0.00296986 10.2442 0.0347631 9.92848 0.244392 9.30749C0.601809 8.24908 1.3135 6.93997 1.58811 6.83508C1.71703 6.78577 2.10065 6.79312 2.45702 6.84976C4.6445 7.20222 6.26807 8.69175 6.82464 10.8547C6.96614 11.4012 6.97976 11.7799 6.90744 13.1362C6.7324 16.4436 6.86342 17.3311 7.70194 18.529L8.13167 19.1426L7.62752 18.8489C5.53752 17.63 3.65191 15.4649 2.6698 13.1551C2.29142 12.2666 1.83128 10.5998 1.83023 10.1204C1.83023 9.93268 1.78307 9.77953 1.72542 9.77953C1.54933 9.77953 1.60908 11.6519 1.8187 12.6663C2.26626 14.8366 3.47896 16.837 5.33523 18.4671C7.51956 20.3846 10.2709 21.4021 13.3598 21.4336C15.0106 21.4503 14.1354 21.6276 12.102 21.6885C10.751 21.7294 10.3192 21.7031 9.53409 21.5322ZM25.9428 20.7874C25.1955 20.2262 24.0582 19.6849 23.0551 19.4122C21.8875 19.0954 19.4653 19.0944 18.2337 19.408C17.5042 19.5947 17.4245 19.6 17.6205 19.4479C18.5439 18.7293 18.8154 18.486 19.2451 17.9898C20.3908 16.6671 20.8436 15.2898 20.7859 13.2957L20.7492 12.039L21.397 11.5491C24.5393 9.17008 29.1941 10.7708 30.1836 14.5723C30.8533 17.1475 29.5222 19.8559 27.0486 20.951L26.4889 21.1986L25.9428 20.7874ZM25.3391 15.9705L26.1514 15.6579L26.9375 15.9705C27.3704 16.1426 27.7707 16.2831 27.8273 16.2831C27.8829 16.2831 27.929 15.9632 27.929 15.5709V14.8586L28.4059 14.46C28.669 14.2397 28.8692 13.988 28.8514 13.8999C28.8346 13.8107 28.5149 13.5663 28.1418 13.3555L27.4636 12.9715L27.2907 12.211C27.1964 11.7935 27.0947 11.4275 27.0664 11.3991C27.0381 11.3708 26.6524 11.4862 26.209 11.6572L25.404 11.9677L24.6127 11.5911C23.706 11.16 23.6914 11.1673 23.5887 12.0799C23.5247 12.6453 23.4943 12.6967 22.9933 13.0701C22.703 13.2873 22.4839 13.5201 22.5059 13.5894C22.5279 13.6576 22.8738 13.9146 23.2721 14.1611C23.6966 14.4223 24.0278 14.7065 24.0697 14.8429C24.1085 14.9719 24.2154 15.3485 24.3087 15.68C24.401 16.0114 24.488 16.2831 24.5016 16.2831C24.5163 16.2831 24.8925 16.1426 25.3391 15.9705ZM12.2069 19.2674C8.69348 18.2919 7.82247 13.5715 10.6325 10.7278C12.9448 8.3886 16.5567 8.24174 18.7137 10.4005C19.612 11.2995 20.0019 12.1712 20.0082 13.2894C20.0197 15.7943 18.0817 18.2846 15.4582 19.1332C14.5599 19.4237 13.0014 19.4877 12.2069 19.2674ZM15.8701 14.2555C16.2338 13.7341 16.282 13.7037 17.1363 13.4635C17.6247 13.3271 18.0398 13.2013 18.0586 13.1845C18.0775 13.1687 17.9077 12.8845 17.6803 12.5551L17.2683 11.954L17.4245 11.333C17.6331 10.5075 17.5775 10.4603 16.5451 10.5872L15.7328 10.6869L15.1742 10.1813C14.867 9.90226 14.5757 9.67463 14.5274 9.67463C14.4782 9.67463 14.2235 9.99876 13.9604 10.3953L13.4814 11.1149L12.6345 11.247C12.1524 11.3215 11.7876 11.4296 11.7886 11.4967C11.7897 11.5617 11.9092 11.8722 12.0549 12.1859L12.3201 12.7555L12.0947 13.3114C11.753 14.1558 11.818 14.2209 12.9154 14.1359L13.8315 14.0656L14.5128 14.6394C15.2842 15.2898 15.1176 15.337 15.8701 14.2555ZM20.2566 10.4351C19.7325 9.5498 18.3563 8.53545 17.1059 8.11167C16.5912 7.93649 16.5546 7.90083 16.5242 7.54523C16.4005 6.08296 17.4664 4.08049 18.7798 3.30949C19.3311 2.98641 19.4894 3.08921 19.3741 3.69551C19.2158 4.52525 19.1676 4.48539 20.2786 4.45287L21.2764 4.42245L21.8781 4.96057L22.4808 5.49764L22.9661 5.21232C23.4189 4.94798 23.5058 4.9333 24.2385 4.99938L25.0257 5.07071L24.9586 4.43713C24.8967 3.84342 25.0173 3.27593 25.2049 3.27593C25.2447 3.27593 25.4638 3.41124 25.6923 3.57698C26.8568 4.4214 27.5968 6.09765 27.4794 7.62914C27.4259 8.32566 27.0737 9.5026 26.884 9.62008C26.8348 9.65051 26.4962 9.59806 26.1304 9.5047C25.6283 9.37568 25.1714 9.3463 24.2605 9.38617C22.9 9.44596 22.0175 9.71344 21.0396 10.3607C20.7377 10.56 20.4767 10.7236 20.4589 10.7236C20.4421 10.7236 20.3509 10.5935 20.2566 10.4351ZM8.27422 9.39036C8.46918 8.08859 9.28254 6.25814 10.208 5.03819C10.8359 4.21161 12.189 2.91298 12.9144 2.44305C13.2173 2.24689 13.4458 2.06857 13.4227 2.04549C13.3472 1.96891 11.8494 2.76928 11.2111 3.22663C9.71961 4.29552 8.32872 6.17947 7.80675 7.83894C7.55729 8.62986 7.45981 8.52077 7.5269 7.52425C7.72395 4.5735 9.00792 2.5448 11.4732 1.28813C12.754 0.635675 14.2371 0.268536 16.39 0.0702807L17.1656 0L17.0985 0.799314C17.0095 1.85248 16.8606 2.43885 16.456 3.32838C15.758 4.86511 14.6857 5.95185 13.1125 6.71864C12.6429 6.94732 11.6954 7.40781 11.0067 7.74138C9.94811 8.25433 9.63367 8.46727 8.97753 9.11343L8.20085 9.87708L8.27422 9.39036ZM21.985 4.27035L21.4431 3.79517L20.7021 3.88433L19.961 3.97244L19.9757 3.59796C19.9841 3.39236 19.9547 2.999 19.9107 2.72522C19.8174 2.15248 19.8373 2.14304 20.6224 2.38221L21.1245 2.53431L21.7932 2.05388C22.16 1.78849 22.4912 1.56611 22.529 1.55877C22.5667 1.55142 22.7009 1.80318 22.8267 2.11892L23.0551 2.6927L23.5792 2.66543C23.8675 2.65074 24.2333 2.61403 24.3915 2.58256C24.7374 2.51333 24.7521 2.61718 24.4775 3.15634C24.3307 3.44481 24.292 3.67454 24.3349 3.99657L24.3947 4.44133L23.8758 4.3721C23.4534 4.3165 23.291 4.34378 22.9965 4.52315C22.7984 4.64483 22.6118 4.74343 22.5814 4.74448C22.552 4.74448 22.2837 4.53049 21.985 4.27035ZM24.6714 14.9184C24.533 14.2943 24.5121 14.267 23.9052 13.8978L23.2805 13.5181L23.5321 13.3534C24.0236 13.0313 24.1557 12.831 24.1557 12.4019C24.1557 12.1712 24.184 11.9824 24.2186 11.9824C24.2532 11.9824 24.5121 12.1124 24.794 12.2708L25.3055 12.5582L25.9627 12.3233C26.3233 12.1932 26.6482 12.0873 26.6838 12.0873C26.7195 12.0873 26.8044 12.3705 26.8725 12.7177C26.9951 13.3418 27.0025 13.3513 27.5831 13.645L28.1701 13.9418L27.7875 14.2471C27.4416 14.523 27.4049 14.6016 27.4049 15.0621C27.4049 15.5058 27.3808 15.5614 27.2215 15.4964C26.0927 15.0391 26.1776 15.038 24.9303 15.5153C24.8601 15.5426 24.7563 15.3013 24.6714 14.9184ZM14.6176 13.9796C14.1616 13.5778 14.1208 13.5642 13.3745 13.56C12.6827 13.5558 12.6114 13.5369 12.6785 13.3722C12.951 12.6988 12.9542 12.639 12.7372 12.2834C12.6188 12.0894 12.5223 11.8974 12.5213 11.8575C12.5213 11.8177 12.7456 11.7547 13.0192 11.718C13.8011 11.611 13.8357 11.59 14.2424 10.9775L14.626 10.3984L15.1196 10.8337C15.5892 11.247 15.6374 11.2649 16.1122 11.2019C16.3869 11.1652 16.6898 11.1054 16.7862 11.0687C16.9193 11.0173 16.9434 11.0446 16.8889 11.1862C16.6751 11.7453 16.6992 12.1397 16.9728 12.5058L17.2453 12.8719L16.5525 13.0471C16.1709 13.1436 15.845 13.238 15.8271 13.2579C15.8104 13.2778 15.6448 13.5411 15.4592 13.8443C15.2748 14.1474 15.1155 14.395 15.106 14.395C15.0966 14.395 14.8775 14.2072 14.6176 13.9796Z" fill="white"/>
</svg>
