<svg width="34" height="32" viewBox="0 0 34 32" fill="none" xmlns="http://www.w3.org/2000/svg">
<path d="M16.7752 30.7242C12.0174 30.2015 8.03087 28.0953 5.10505 24.5585C4.40023 23.7068 3.45598 21.9717 3.21667 21.0903C3.12055 20.7382 3.13564 20.7458 4.06794 21.532C6.63741 23.6967 9.46155 24.6926 12.5274 24.513C14.5941 24.3932 15.8746 23.9742 18.5858 22.5348C19.5008 22.0488 20.5731 21.542 20.9693 21.4099C22.8506 20.7788 25.0446 21.2068 26.318 22.4521C26.9131 23.0333 26.8902 23.2771 26.1699 24.0123C24.8229 25.3875 22.2508 26.4961 20.1511 26.6061C19.7429 26.6275 19.4111 26.6869 19.4138 26.7372C19.4268 26.9865 21.6213 27.0217 22.7721 26.7902C24.3779 26.4686 26.4649 25.4969 27.9493 24.3792C29.6738 23.0798 31.4096 21.1527 32.4791 19.3498C32.8534 18.7199 33.1829 18.1785 33.2118 18.1486C33.348 18.0049 33.1956 19.7828 32.9983 20.6251C32.5551 22.5222 31.6269 24.157 30.0272 25.8564C28.0805 27.9248 25.7034 29.3308 22.6455 30.2232C21.2624 30.6276 18.2373 30.8849 16.7752 30.7242ZM10.6479 22.6966C6.66096 22.0432 3.27405 19.7417 1.55909 16.5186C0.866363 15.2167 0.67731 14.5333 0.594343 13.0304C0.533175 11.9233 0.554332 11.606 0.731173 10.9749C1.03271 9.89923 1.67491 8.55467 1.94366 8.43554C2.06982 8.37956 2.4533 8.36682 2.81215 8.40473C5.01507 8.64222 6.71438 10.0447 7.38338 12.1756C7.55329 12.714 7.58671 13.0914 7.58547 14.4497C7.58377 17.7617 7.76105 18.641 8.66111 19.7934L9.12238 20.3837L8.60354 20.1168C6.45261 19.009 4.45627 16.9456 3.35462 14.6903C2.93026 13.8228 2.38352 12.1824 2.35739 11.7037C2.34756 11.5162 2.29244 11.3658 2.23488 11.3688C2.05903 11.378 2.21669 13.2447 2.47911 14.2467C3.03964 16.3906 4.35538 18.3248 6.29441 19.8555C8.5761 21.6561 11.377 22.5282 14.4633 22.3979C16.1127 22.3283 15.248 22.5511 13.2205 22.7183C11.8735 22.8299 11.4409 22.8263 10.6479 22.6966ZM26.9952 21.0941C26.2195 20.5728 25.0555 20.0918 24.0395 19.8719C22.8569 19.6167 20.4379 19.7424 19.2244 20.1201C18.5057 20.3447 18.4264 20.3541 18.6142 20.192C19.4987 19.4261 19.7571 19.1689 20.1603 18.6509C21.2351 17.27 21.6152 15.8709 21.4533 13.8825L21.3509 12.6295L21.9721 12.1064C24.9856 9.56617 29.7178 10.9211 30.9049 14.6656C31.7085 17.2022 30.5209 19.9766 28.108 21.1997L27.562 21.4762L26.9952 21.0941ZM26.1402 16.3155L26.935 15.9608L27.7364 16.2318C28.1777 16.3809 28.5849 16.5004 28.6414 16.4974C28.6969 16.4945 28.7262 16.1726 28.7057 15.7808L28.6684 15.0695L29.1238 14.6465C29.375 14.4128 29.5617 14.1509 29.5393 14.0638C29.5179 13.9756 29.1859 13.7483 28.8022 13.5573L28.1049 13.2094L27.8924 12.459C27.7763 12.047 27.6556 11.6867 27.6259 11.6599C27.5961 11.6331 27.217 11.7685 26.7832 11.9625L25.9956 12.3147L25.1856 11.98C24.2576 11.5969 24.2434 11.605 24.1885 12.5218C24.1543 13.0897 24.1266 13.1427 23.6458 13.5418C23.3673 13.7738 23.1607 14.0179 23.1863 14.0858C23.2118 14.1528 23.5707 14.3913 23.9814 14.6166C24.4189 14.8553 24.7646 15.1218 24.8136 15.2558C24.8591 15.3826 24.9855 15.7531 25.096 16.0792C25.2055 16.4054 25.3066 16.6722 25.3202 16.6714C25.3349 16.6707 25.7033 16.5106 26.1402 16.3155ZM13.1985 20.2951C9.63889 19.5048 8.52203 14.8365 11.1794 11.8496C13.366 9.39257 16.9653 9.05688 19.2324 11.0998C20.1765 11.9505 20.6115 12.8006 20.6763 13.917C20.8189 16.4179 19.0139 19.0061 16.4384 19.9909C15.5565 20.3281 14.0034 20.4735 13.1985 20.2951ZM16.5944 15.0983C16.9304 14.5587 16.9769 14.5257 17.8174 14.2412C18.298 14.0794 18.706 13.932 18.7239 13.9142C18.7419 13.8975 18.5575 13.6225 18.3131 13.3055L17.8703 12.7268L17.9938 12.0985C18.1589 11.2632 18.1009 11.219 17.0765 11.3998L16.2706 11.5418L15.6862 11.0661C15.3649 10.8036 15.062 10.5915 15.0139 10.594C14.9647 10.5966 14.7273 10.9336 14.4853 11.3433L14.0446 12.087L13.2058 12.2633C12.7282 12.3629 12.3696 12.4899 12.3742 12.5569C12.3786 12.6218 12.5142 12.9256 12.6761 13.2312L12.9707 13.7861L12.7748 14.3531C12.4778 15.2143 12.5461 15.2758 13.6375 15.1335L14.5487 15.0154L15.2591 15.5527C16.0635 16.1618 15.8995 16.2177 16.5944 15.0983ZM20.775 11.0536C20.2053 10.1969 18.7779 9.25601 17.507 8.89825C16.9839 8.75024 16.9454 8.71655 16.8964 8.36303C16.6964 6.90924 17.6561 4.85372 18.9272 4.01505C19.4609 3.66356 19.6243 3.75793 19.5409 4.36944C19.4263 5.20632 19.3761 5.16903 20.4839 5.07841L21.4787 4.99581L22.1077 5.50171L22.7377 6.0065L23.2074 5.69618C23.6457 5.4085 23.7318 5.38928 24.4669 5.41693L25.2567 5.44697L25.1566 4.81777C25.0638 4.2281 25.1544 3.65508 25.3418 3.64526C25.3816 3.64318 25.6074 3.76685 25.8443 3.9204C27.0514 4.70271 27.8781 6.33794 27.841 7.87348C27.8241 8.57183 27.534 9.7656 27.3507 9.89285C27.303 9.9258 26.9622 9.89115 26.592 9.81706C26.0839 9.71449 25.626 9.70908 24.7185 9.79655C23.363 9.92746 22.4957 10.2408 21.553 10.9383C21.2619 11.1531 21.0099 11.3302 20.9921 11.3311C20.9753 11.332 20.8775 11.2069 20.775 11.0536ZM8.75434 10.6374C8.88089 9.32721 9.59734 7.4567 10.4577 6.18999C11.0415 5.33168 12.3248 3.96401 13.0245 3.45676C13.3167 3.24502 13.5356 3.05498 13.5114 3.03314C13.432 2.96062 11.9781 3.83828 11.3646 4.32841C9.9311 5.4739 8.64072 7.42806 8.20631 9.11257C7.99859 9.91546 7.89553 9.81162 7.91037 8.81296C7.95272 5.85594 9.12876 3.76282 11.5248 2.37886C12.7698 1.66026 14.2317 1.216 16.3712 0.905345L17.1421 0.794568L17.1169 1.5963C17.0831 2.65268 16.9651 3.24604 16.6077 4.15552C15.991 5.72669 14.9771 6.86804 13.4461 7.71613C12.9892 7.96906 12.067 8.47852 11.3968 8.84767C10.3665 9.41532 10.0636 9.64442 9.44218 10.324L8.70654 11.1273L8.75434 10.6374ZM22.1784 4.80684L21.6123 4.36067L20.877 4.48849L20.1416 4.61527L20.1366 4.24053C20.1342 4.03477 20.0843 3.64349 20.0261 3.37239C19.9029 2.80532 19.9223 2.79485 20.7188 2.9926L21.2282 3.11821L21.8708 2.60344C22.2233 2.31922 22.5424 2.07981 22.5797 2.0705C22.617 2.06119 22.7641 2.30558 22.9063 2.6143L23.1645 3.17535L23.6864 3.12068C23.9735 3.09093 24.3369 3.03512 24.4933 2.99541C24.8351 2.90817 24.8551 3.01111 24.6091 3.56391C24.4777 3.85966 24.451 4.0911 24.5107 4.41045L24.5937 4.85147L24.0719 4.80949C23.6472 4.77608 23.4864 4.81182 23.2017 5.00636C23.0102 5.13824 22.829 5.24647 22.7987 5.24911C22.7694 5.25065 22.4903 5.05099 22.1784 4.80684ZM25.4183 15.2997C25.2475 14.6837 25.2252 14.6575 24.5998 14.3206L23.9561 13.9741L24.1987 13.7964C24.6727 13.4491 24.7941 13.2421 24.7717 12.8137C24.7596 12.5832 24.778 12.3932 24.8125 12.3914C24.847 12.3896 25.1124 12.5059 25.4022 12.6493L25.9281 12.9096L26.5721 12.6406C26.9253 12.4918 27.2443 12.369 27.2798 12.3671C27.3154 12.3653 27.415 12.6436 27.5013 12.9868C27.6564 13.6037 27.6642 13.6127 28.2595 13.8756L28.8611 14.1414L28.4951 14.4662C28.1641 14.7598 28.1316 14.8403 28.1557 15.3002C28.1789 15.7433 28.1577 15.8001 27.9952 15.7435C26.844 15.3458 26.9287 15.3403 25.7081 15.8822C25.6394 15.9131 25.5232 15.6776 25.4183 15.2997ZM15.3292 14.8884C14.8528 14.511 14.8113 14.4995 14.0658 14.5344C13.3748 14.5664 13.3026 14.5513 13.361 14.3833C13.5979 13.6965 13.5979 13.6367 13.3626 13.2929C13.2342 13.1053 13.1278 12.9187 13.1247 12.8789C13.1226 12.8391 13.3433 12.7645 13.6146 12.7135C14.3898 12.5658 14.4233 12.543 14.7973 11.91L15.1501 11.3117L15.6659 11.7205C16.1565 12.1087 16.2056 12.124 16.6764 12.0363C16.9487 11.9852 17.2481 11.9097 17.3425 11.868C17.4727 11.8097 17.4982 11.8356 17.4512 11.9799C17.2669 12.5494 17.3117 12.942 17.604 13.2933L17.8953 13.6446L17.2126 13.8558C16.8367 13.9722 16.5161 14.0835 16.4993 14.1044C16.4836 14.1251 16.332 14.3967 16.1626 14.7092C15.9943 15.0216 15.8481 15.2771 15.8387 15.2776C15.8293 15.2781 15.6007 15.1021 15.3292 14.8884Z" fill="#222222"/>
</svg>
