<svg width="34" height="32" viewBox="0 0 34 32" fill="none" xmlns="http://www.w3.org/2000/svg">
<path d="M15.2184 30.6554C10.5435 29.628 6.80453 27.1085 4.2728 23.2798C3.66288 22.3577 2.90917 20.5317 2.76527 19.6299C2.70726 19.2695 2.72146 19.2787 3.56454 20.1599C5.88837 22.5864 8.59012 23.8779 11.6576 24.0265C13.7253 24.1278 15.0432 23.8479 17.8926 22.7061C18.8541 22.3205 19.9745 21.931 20.3824 21.8419C22.3204 21.4151 24.4562 22.0748 25.5894 23.4488C26.1191 24.0902 26.0703 24.3302 25.2757 24.9844C23.7896 26.208 21.1139 27.0357 19.0144 26.9211C18.6063 26.8988 18.2701 26.9225 18.2674 26.9728C18.2538 27.222 20.4319 27.4912 21.6008 27.3838C23.2318 27.2354 25.4106 26.4919 27.0057 25.539C28.8591 24.431 30.7906 22.7001 32.0464 21.0217C32.4857 20.4353 32.8711 19.9321 32.903 19.9055C33.0538 19.7772 32.7126 21.5287 32.4265 22.3451C31.7834 24.1841 30.6861 25.7105 28.9142 27.2295C26.7579 29.0783 24.2443 30.2227 21.1087 30.7837C19.6903 31.0383 16.655 30.9713 15.2184 30.6554ZM9.9827 22.0199C6.08822 20.9448 2.96621 18.2951 1.60497 14.9074C1.05511 13.539 0.940051 12.8394 1.01793 11.3361C1.07524 10.2288 1.13013 9.91561 1.37331 9.30697C1.78789 8.26963 2.5699 7.00126 2.84982 6.91149C2.98124 6.86929 3.36389 6.89754 3.71664 6.97353C5.88165 7.44472 7.4216 9.02055 7.85941 11.2107C7.9709 11.7641 7.96386 12.1429 7.8177 13.4933C7.46261 16.7862 7.54505 17.6795 8.317 18.9213L8.71265 19.5575L8.22525 19.2367C6.20482 17.9057 4.44005 15.641 3.58533 13.2811C3.25595 12.3733 2.88738 10.6839 2.91247 10.2052C2.9227 10.0177 2.88396 9.8622 2.82639 9.85905C2.65057 9.84945 2.60814 11.7223 2.76216 12.7466C3.09072 14.9381 4.19256 17.0016 5.95719 18.7305C8.03373 20.7642 10.7255 21.9302 13.8081 22.1301C15.4556 22.2368 14.572 22.3661 12.5383 22.316C11.187 22.2832 10.7573 22.2335 9.9827 22.0199ZM26.4076 22.1709C25.692 21.5698 24.5859 20.9673 23.5992 20.6403C22.4506 20.2603 20.032 20.1272 18.7852 20.3732C18.0466 20.5199 17.9667 20.5208 18.1707 20.3796C19.132 19.7125 19.4163 19.4843 19.8724 19.0123C21.0885 17.754 21.6157 16.4034 21.6668 14.4091L21.6987 13.1523L22.3722 12.6985C25.6396 10.4943 30.2002 12.3464 30.9809 16.1962C31.5093 18.8041 30.0325 21.4359 27.5028 22.3946L26.9304 22.6112L26.4076 22.1709ZM26.0674 17.3283L26.8955 17.0604L27.6634 17.4154C28.0863 17.6108 28.4784 17.773 28.5349 17.7761C28.5904 17.7791 28.6539 17.4621 28.6753 17.0704L28.7141 16.3592L29.212 15.9872C29.4867 15.7816 29.7004 15.5411 29.6874 15.4522C29.6755 15.3622 29.3696 15.1008 29.0085 14.8699L28.3523 14.4496L28.2211 13.6808C28.1497 13.2587 28.0681 12.8877 28.0414 12.8578C28.0147 12.828 27.6232 12.9222 27.1712 13.0688L26.3505 13.3349L25.5809 12.9157C24.6991 12.4358 24.684 12.4423 24.5317 13.348C24.437 13.9091 24.4039 13.9587 23.8832 14.3043C23.5815 14.5053 23.3501 14.7259 23.3683 14.7962C23.3865 14.8655 23.7179 15.1409 24.1022 15.4088C24.5118 15.6927 24.827 15.9946 24.8614 16.1331C24.8931 16.264 24.9793 16.6459 25.0544 16.982C25.1285 17.318 25.2005 17.594 25.2141 17.5947C25.2288 17.5955 25.6122 17.4757 26.0674 17.3283ZM12.775 19.9043C9.32 18.7387 8.70764 13.9778 11.6686 11.2915C14.1049 9.08186 17.7194 9.13215 19.7556 11.4053C20.6035 12.3519 20.9453 13.2436 20.8906 14.3605C20.7656 16.8623 18.6947 19.2432 16.0288 19.9475C15.116 20.1887 13.5563 20.1676 12.775 19.9043ZM16.706 15.0995C17.0976 14.5988 17.1474 14.571 18.0135 14.3777C18.5086 14.2682 18.9299 14.1652 18.9497 14.1494C18.9694 14.1347 18.8153 13.8416 18.6062 13.5003L18.2276 12.8777L18.4174 12.2662C18.6707 11.4532 18.6178 11.4031 17.58 11.4735L16.7635 11.5287L16.2332 10.9934C15.9418 10.6981 15.6632 10.4549 15.6151 10.4523C15.5659 10.4496 15.2939 10.7594 15.0096 11.1409L14.4921 11.8333L13.6392 11.9191C13.1538 11.9672 12.7837 12.0552 12.781 12.1223C12.7785 12.1873 12.8809 12.5038 13.0093 12.825L13.243 13.4082L12.9877 13.951C12.6005 14.7755 12.6618 14.844 13.7622 14.819L14.6808 14.7988L15.3298 15.4089C16.0646 16.1003 15.8956 16.1384 16.706 15.0995ZM21.2943 11.524C20.8193 10.6114 19.5004 9.52354 18.2749 9.03221C17.7706 8.82924 17.7359 8.79163 17.7249 8.4349C17.6812 6.96807 18.8547 5.02668 20.2081 4.32844C20.7762 4.0359 20.9287 4.14717 20.7805 4.74629C20.5772 5.56616 20.5313 5.52373 21.6424 5.55183L22.6404 5.57586L23.2118 6.14598L23.7843 6.71511L24.2844 6.45667C24.751 6.21741 24.8386 6.20749 25.5666 6.31342L26.3487 6.42756L26.3163 5.79127C26.2869 5.19507 26.4382 4.63499 26.6255 4.64522C26.6653 4.64739 26.8766 4.79445 27.0958 4.9724C28.2125 5.87905 28.86 7.59315 28.6593 9.11596C28.5679 9.80853 28.1521 10.9645 27.9563 11.0715C27.9054 11.0992 27.5702 11.0283 27.2101 10.9152C26.7158 10.759 26.2611 10.7047 25.3494 10.6949C23.9877 10.6804 23.0919 10.8994 22.0801 11.4923C21.7679 11.6749 21.4983 11.824 21.4805 11.8231C21.4638 11.8221 21.3798 11.6873 21.2943 11.524ZM9.38668 9.8275C9.65231 8.5383 10.5643 6.75492 11.5549 5.58724C12.2269 4.79611 13.6488 3.57319 14.3987 3.1435C14.7118 2.96415 14.9497 2.79855 14.9279 2.77425C14.8568 2.69367 13.3176 3.41118 12.6553 3.83305C11.1077 4.81905 9.61615 6.62436 9.00448 8.2529C8.71227 9.02905 8.62089 8.9148 8.7422 7.92342C9.09983 4.98781 10.4925 3.03212 13.0226 1.91173C14.3371 1.33007 15.838 1.04434 17.9985 0.963754L18.7768 0.935865L18.6663 1.73033C18.5199 2.77707 18.3393 3.35446 17.8868 4.2206C17.106 5.717 15.9761 6.74365 14.3634 7.42354C13.882 7.62627 12.9108 8.03442 12.205 8.32995C11.12 8.78442 10.7944 8.9799 10.104 9.58933L9.28688 10.3095L9.38668 9.8275ZM23.3562 5.46261L22.841 4.95859L22.0962 5.00722L21.3515 5.0548L21.3865 4.68168C21.4061 4.47684 21.3983 4.08247 21.3692 3.80669C21.3073 3.22972 21.3277 3.22138 22.0986 3.50299L22.5916 3.68224L23.2855 3.23898C23.6663 2.99399 24.0091 2.79 24.0472 2.78472C24.0853 2.77945 24.2055 3.03814 24.3139 3.36027L24.5108 3.94566L25.0356 3.947C25.3242 3.94805 25.6914 3.93133 25.8512 3.90854C26.2003 3.85827 26.2093 3.96276 25.9057 4.48616C25.7435 4.76619 25.6922 4.99346 25.7176 5.31736L25.753 5.76472L25.2387 5.6673C24.8199 5.58876 24.6562 5.60713 24.3524 5.77018C24.1479 5.88088 23.9563 5.96917 23.9259 5.96856C23.8965 5.96696 23.6403 5.73866 23.3562 5.46261ZM25.4581 16.2413C25.3539 15.6106 25.3345 15.5822 24.7487 15.1804L24.1456 14.7672L24.4057 14.6165C24.9142 14.3217 25.0569 14.1289 25.0803 13.7005C25.0929 13.47 25.1315 13.283 25.166 13.2849C25.2005 13.2868 25.452 13.4308 25.7249 13.6043L26.2199 13.9192L26.8889 13.7204C27.2561 13.6102 27.5863 13.5221 27.6219 13.5241C27.6574 13.526 27.7268 13.8134 27.7759 14.1639C27.8643 14.7937 27.8711 14.8036 28.4349 15.1285L29.0048 15.4569L28.6062 15.7409C28.2457 15.9975 28.2048 16.074 28.1797 16.5338C28.1555 16.9769 28.1284 17.0311 27.9729 16.9575C26.8707 16.4393 26.9555 16.4428 25.684 16.8514C25.6124 16.8748 25.522 16.6282 25.4581 16.2413ZM15.4704 14.7558C15.037 14.3297 14.997 14.3139 14.252 14.269C13.5615 14.2271 13.4914 14.2044 13.5673 14.0436C13.8762 13.386 13.8826 13.3265 13.6853 12.9596C13.5776 12.7593 13.4918 12.5624 13.4929 12.5226C13.4951 12.4828 13.7225 12.4321 13.9977 12.4104C14.7842 12.3462 14.8199 12.3271 15.2594 11.7376L15.674 11.1804L16.1432 11.6419C16.5896 12.0802 16.6367 12.1007 17.1143 12.0637C17.3905 12.042 17.6962 11.9988 17.7945 11.9674C17.9302 11.9234 17.9528 11.9519 17.8906 12.0903C17.6467 12.6369 17.6492 13.0321 17.9024 13.4125L18.1546 13.7929L17.4532 13.9301C17.067 14.0057 16.7364 14.0822 16.7175 14.1011C16.6997 14.1201 16.52 14.3739 16.3182 14.6665C16.1175 14.9592 15.9449 15.1977 15.9355 15.1972C15.926 15.1966 15.7175 14.9972 15.4704 14.7558Z" fill="#222222"/>
</svg>
